<?xml version="1.0" encoding="UTF-8" standalone="no"?>
<!DOCTYPE svg PUBLIC "-//W3C//DTD SVG 1.1//EN" "http://www.w3.org/Graphics/SVG/1.1/DTD/svg11.dtd">
<svg width="100%" height="100%" viewBox="0 0 800 600" version="1.1" xmlns="http://www.w3.org/2000/svg" xmlns:xlink="http://www.w3.org/1999/xlink" xml:space="preserve" xmlns:serif="http://www.serif.com/" style="fill-rule:evenodd;clip-rule:evenodd;stroke-linejoin:round;stroke-miterlimit:2;">
    <g transform="matrix(2.59965,0,0,2.59965,221.235,44.2354)">
        <path d="M83.6,147.35L114.72,162.08C115.745,162.563 116.401,163.598 116.401,164.731C116.401,165.77 115.848,166.735 114.95,167.26L82.33,186.35C78.301,188.708 73.232,188.444 69.47,185.68L45.28,168C44.766,167.624 44.461,167.023 44.461,166.386C44.461,165.677 44.838,165.018 45.45,164.66L74.28,147.79C77.121,146.116 80.614,145.951 83.6,147.35Z" style="fill:url(#_Linear1);fill-rule:nonzero;"/>
    </g>
    <g transform="matrix(2.59965,0,0,2.59965,221.235,44.2354)">
        <path d="M76.14,105.46C75.745,105.702 75.45,106.078 75.31,106.52C75.268,106.607 75.234,106.697 75.21,106.79L74.13,110.79L44.63,127.93L42.56,126.74C41.816,126.203 40.84,126.1 40,126.47L44.14,124.05L76.14,105.46Z" style="fill:url(#_Linear2);fill-rule:nonzero;"/>
    </g>
    <g transform="matrix(2.59965,0,0,2.59965,221.235,44.2354)">
        <path d="M40,126.48C39.949,126.503 39.902,126.533 39.86,126.57L40,126.48Z" style="fill:url(#_Linear3);fill-rule:nonzero;"/>
    </g>
    <g transform="matrix(2.59965,0,0,2.59965,221.235,44.2354)">
        <path d="M76.14,105.46C75.745,105.702 75.45,106.078 75.31,106.52C75.268,106.607 75.234,106.697 75.21,106.79L74.13,110.79L44.63,127.93L42.56,126.74C41.816,126.203 40.84,126.1 40,126.47L44.14,124.05L76.14,105.46Z" style="fill:url(#_Linear4);fill-rule:nonzero;"/>
    </g>
    <g transform="matrix(2.59965,0,0,2.59965,221.235,44.2354)">
        <path d="M73.94,101.66C75.18,100.94 76.94,101.06 78.75,102.13L80.82,103.32L44.65,124.32L42.58,123.12C40.73,122.05 39.01,121.93 37.77,122.65L73.94,101.66Z" style="fill:url(#_Linear5);fill-rule:nonzero;"/>
    </g>
    <g transform="matrix(2.59965,0,0,2.59965,221.235,44.2354)">
        <path d="M80.81,103.32L80.8,106.91L74.14,110.79L44.63,127.93L44.65,124.34L75.31,106.52L80.81,103.32Z" style="fill:rgb(230,230,230);fill-rule:nonzero;"/>
    </g>
    <g transform="matrix(2.59965,0,0,2.59965,221.235,44.2354)">
        <path d="M108.4,162.14L108.4,165.7C108.411,166.753 107.852,167.734 106.94,168.26L74.32,187.34C70.293,189.701 65.224,189.441 61.46,186.68L34.81,167.15C32.462,165.669 30.601,163.53 29.46,161C28.229,158.735 27.819,156.113 28.3,153.58L36,125.15C36.228,124.104 36.88,123.198 37.8,122.65L38.06,122.52L38.33,122.42C38.493,122.365 38.66,122.325 38.83,122.3C38.916,122.285 39.004,122.285 39.09,122.3C39.23,122.29 39.37,122.29 39.51,122.3C40.574,122.335 41.609,122.653 42.51,123.22L44.08,124.12L44.58,124.41L44.58,128L42.51,126.81C41.766,126.273 40.79,126.17 39.95,126.54C39.899,126.563 39.852,126.593 39.81,126.63C39.752,126.663 39.698,126.704 39.65,126.75C39.612,126.782 39.578,126.819 39.55,126.86C39.493,126.906 39.442,126.96 39.4,127.02C39.367,127.052 39.34,127.089 39.32,127.13C39.258,127.209 39.208,127.297 39.17,127.39L39.17,127.45C39.111,127.59 39.061,127.734 39.02,127.88L31.31,156.35C31.044,157.713 31.26,159.128 31.92,160.35C32.541,161.708 33.546,162.855 34.81,163.65L37.53,165.65L61.46,183.1C65.226,185.856 70.292,186.116 74.32,183.76L106.94,164.67C107.847,164.153 108.407,163.184 108.4,162.14Z" style="fill:url(#_Linear6);fill-rule:nonzero;"/>
    </g>
    <g transform="matrix(2.59965,0,0,2.59965,221.235,44.2354)">
        <path d="M31.32,156.28L39,127.81C39.123,127.264 39.457,126.789 39.93,126.49L76.11,105.49C75.63,105.783 75.29,106.26 75.17,106.81L67.45,135.28C67.187,136.645 67.406,138.059 68.07,139.28C68.631,140.614 69.578,141.749 70.79,142.54L106.68,159.54C107.704,160.026 108.359,161.063 108.359,162.196C108.359,163.237 107.807,164.202 106.91,164.73L74.33,183.76C70.302,186.116 65.236,185.856 61.47,183.1L34.82,163.57C33.557,162.777 32.555,161.629 31.94,160.27C31.279,159.052 31.06,157.641 31.32,156.28Z" style="fill:url(#_Linear7);fill-rule:nonzero;"/>
    </g>
    <g transform="matrix(2.59965,0,0,2.59965,221.235,44.2354)">
        <path d="M7.07,70.19L127,1C129,-0.13 130.76,-0.24 132,0.51L135.17,2.35C133.88,1.6 132.09,1.7 130.12,2.84L10.24,72C6.052,74.718 3.418,79.293 3.17,84.28L3.45,182.17C3.45,184.41 4.25,185.98 5.52,186.72L2.36,184.88C1.08,184.14 0.3,182.57 0.29,180.34L0,82.44C0.262,77.465 2.893,72.906 7.07,70.19Z" style="fill:url(#_Linear8);fill-rule:nonzero;"/>
    </g>
    <g transform="matrix(2.59965,0,0,2.59965,221.235,44.2354)">
        <path d="M3.4,167.42L3.45,182.18C3.45,186.67 6.66,188.49 10.57,186.18L130.46,117C134.631,114.284 137.262,109.73 137.53,104.76L137.48,90L3.4,167.42" style="fill:url(#_Linear9);fill-rule:nonzero;"/>
    </g>
    <g transform="matrix(2.59965,0,0,2.59965,221.235,44.2354)">
        <path d="M10.23,72C6.049,74.725 3.417,79.296 3.16,84.28L3.4,167.42L137.48,90L137.24,6.86C137.24,2.36 134.04,0.54 130.13,2.8L10.23,72" style="fill:url(#_Linear10);fill-rule:nonzero;"/>
    </g>
    <g transform="matrix(2.59965,0,0,2.59965,221.235,44.2354)">
        <path d="M130.87,85.22L130.66,11.12L9.76,80.92L9.97,155.01L130.87,85.22" style="fill:rgb(8,20,38);fill-rule:nonzero;"/>
    </g>
    <g transform="matrix(2.59965,0,0,2.59965,221.235,44.2354)">
        <path d="M40,126.48C39.949,126.503 39.902,126.533 39.86,126.57L40,126.48Z" style="fill:url(#_Linear11);fill-rule:nonzero;"/>
    </g>
    <g transform="matrix(2.59965,0,0,2.59965,221.235,44.2354)">
        <path d="M130.13,2.81L10.23,72C6.049,74.725 3.417,79.296 3.16,84.28L3.4,167.42L130.13,2.81Z" style="fill:url(#_Linear12);fill-rule:nonzero;"/>
    </g>
    <g transform="matrix(2.22809,-1.28639,-2.72709e-17,2.97079,-330.748,268.953)">
        <path d="M283.496,120.394C284.565,120.394 285.46,120.529 286.18,120.799C286.9,121.069 287.582,121.464 288.228,121.985L287.077,123.326C286.565,122.893 286.022,122.584 285.449,122.396C284.876,122.209 284.275,122.116 283.646,122.116C282.757,122.116 281.931,122.328 281.169,122.754C280.408,123.179 279.796,123.88 279.334,124.856C278.872,125.833 278.641,127.155 278.641,128.823C278.641,130.449 278.861,131.751 279.302,132.729C279.743,133.707 280.34,134.415 281.091,134.852C281.842,135.289 282.681,135.508 283.608,135.508C284.522,135.508 285.275,135.369 285.866,135.091C286.458,134.813 286.971,134.495 287.405,134.137L288.469,135.495C287.974,135.976 287.326,136.393 286.525,136.746C285.723,137.099 284.741,137.275 283.577,137.275C282.254,137.275 281.057,136.951 279.985,136.303C278.914,135.655 278.065,134.703 277.44,133.448C276.815,132.193 276.502,130.651 276.502,128.823C276.502,126.988 276.822,125.445 277.462,124.194C278.102,122.943 278.953,121.996 280.015,121.355C281.077,120.714 282.238,120.394 283.496,120.394Z" style="fill:rgb(96,255,217);fill-rule:nonzero;"/>
        <path d="M291.742,137L291.742,135.472L293.687,135.472L293.687,126.039L291.742,126.039L291.742,124.508L295.211,124.508L295.579,127.463C296.061,126.434 296.646,125.637 297.334,125.074C298.022,124.51 298.93,124.229 300.058,124.229C300.406,124.229 300.717,124.255 300.991,124.307C301.266,124.359 301.546,124.426 301.833,124.508L301.252,126.288C300.986,126.212 300.746,126.157 300.531,126.122C300.317,126.088 300.075,126.07 299.804,126.07C298.841,126.07 298.017,126.411 297.332,127.093C296.647,127.774 296.097,128.804 295.681,130.182L295.681,135.472L298.228,135.472L298.228,137L291.742,137ZM299.908,128.734L299.908,126.015L300.109,124.508L301.833,124.508L301.544,128.734L299.908,128.734Z" style="fill:rgb(96,255,217);fill-rule:nonzero;"/>
        <path d="M312.192,124.508L312.192,135.425L315.717,135.425L315.717,137L306.344,137L306.344,135.425L310.199,135.425L310.199,126.083L306.462,126.083L306.462,124.508L312.192,124.508ZM310.603,118.651C311.044,118.651 311.398,118.785 311.663,119.055C311.928,119.324 312.06,119.653 312.06,120.041C312.06,120.447 311.928,120.786 311.663,121.059C311.398,121.333 311.044,121.469 310.603,121.469C310.178,121.469 309.833,121.333 309.567,121.059C309.301,120.786 309.168,120.447 309.168,120.041C309.168,119.653 309.301,119.324 309.567,119.055C309.833,118.785 310.178,118.651 310.603,118.651Z" style="fill:rgb(96,255,217);fill-rule:nonzero;"/>
        <path d="M324.353,135.627C325.313,135.627 326.071,135.448 326.625,135.088C327.18,134.729 327.457,134.248 327.457,133.645C327.457,133.266 327.389,132.938 327.254,132.662C327.119,132.386 326.837,132.135 326.406,131.911C325.976,131.687 325.32,131.466 324.439,131.249C323.574,131.031 322.823,130.782 322.184,130.503C321.546,130.223 321.052,129.858 320.703,129.408C320.353,128.959 320.178,128.371 320.178,127.646C320.178,126.943 320.377,126.337 320.775,125.828C321.173,125.319 321.729,124.927 322.444,124.652C323.158,124.376 323.982,124.239 324.917,124.239C325.924,124.239 326.803,124.372 327.552,124.64C328.301,124.907 328.935,125.235 329.452,125.623L328.579,126.97C328.106,126.646 327.584,126.379 327.013,126.17C326.442,125.961 325.755,125.857 324.951,125.857C323.963,125.857 323.265,126.009 322.856,126.315C322.446,126.62 322.241,127.015 322.241,127.497C322.241,127.864 322.343,128.166 322.546,128.406C322.749,128.646 323.092,128.862 323.574,129.054C324.056,129.247 324.717,129.459 325.558,129.69C326.373,129.907 327.085,130.166 327.693,130.467C328.301,130.768 328.774,131.161 329.113,131.649C329.451,132.136 329.62,132.769 329.62,133.549C329.62,134.437 329.367,135.154 328.861,135.702C328.355,136.25 327.699,136.649 326.895,136.9C326.091,137.15 325.242,137.275 324.349,137.275C323.223,137.275 322.261,137.11 321.465,136.781C320.668,136.451 320.003,136.053 319.468,135.587L320.605,134.271C321.095,134.675 321.659,135.002 322.295,135.252C322.931,135.502 323.617,135.627 324.353,135.627Z" style="fill:rgb(96,255,217);fill-rule:nonzero;"/>
        <path d="M344.269,136.374C343.84,136.654 343.319,136.874 342.709,137.035C342.098,137.195 341.501,137.275 340.917,137.275C339.577,137.275 338.542,136.923 337.813,136.217C337.084,135.512 336.72,134.606 336.72,133.5L336.72,126.052L333.845,126.052L333.845,124.508L336.72,124.508L336.72,121.669L338.713,121.428L338.713,124.508L343.028,124.508L342.788,126.052L338.713,126.052L338.713,133.473C338.713,134.171 338.897,134.702 339.264,135.065C339.631,135.429 340.243,135.61 341.1,135.61C341.567,135.61 341.998,135.555 342.394,135.446C342.789,135.336 343.154,135.192 343.49,135.013L344.269,136.374Z" style="fill:rgb(96,255,217);fill-rule:nonzero;"/>
        <path d="M354.911,124.508L354.911,135.425L358.436,135.425L358.436,137L349.063,137L349.063,135.425L352.918,135.425L352.918,126.083L349.181,126.083L349.181,124.508L354.911,124.508ZM353.322,118.651C353.763,118.651 354.117,118.785 354.382,119.055C354.647,119.324 354.779,119.653 354.779,120.041C354.779,120.447 354.647,120.786 354.382,121.059C354.117,121.333 353.763,121.469 353.322,121.469C352.897,121.469 352.552,121.333 352.286,121.059C352.02,120.786 351.887,120.447 351.887,120.041C351.887,119.653 352.02,119.324 352.286,119.055C352.552,118.785 352.897,118.651 353.322,118.651Z" style="fill:rgb(96,255,217);fill-rule:nonzero;"/>
        <path d="M371.775,134.274C371.775,134.773 371.857,135.137 372.021,135.366C372.185,135.595 372.441,135.765 372.789,135.876L372.301,137.274C371.764,137.202 371.294,137.031 370.891,136.758C370.487,136.486 370.194,136.07 370.011,135.512C369.565,136.089 369.005,136.528 368.329,136.827C367.654,137.126 366.909,137.275 366.096,137.275C364.847,137.275 363.863,136.922 363.144,136.216C362.424,135.51 362.064,134.576 362.064,133.413C362.064,132.123 362.567,131.134 363.572,130.445C364.577,129.757 366.028,129.412 367.925,129.412L369.768,129.412L369.768,128.371C369.768,127.47 369.505,126.833 368.978,126.458C368.451,126.084 367.722,125.897 366.792,125.897C366.376,125.897 365.891,125.946 365.338,126.046C364.784,126.145 364.185,126.308 363.54,126.534L363.012,125.03C363.778,124.746 364.498,124.543 365.173,124.421C365.848,124.299 366.487,124.239 367.092,124.239C368.65,124.239 369.82,124.602 370.602,125.329C371.384,126.056 371.775,127.038 371.775,128.277L371.775,134.274ZM366.612,135.755C367.229,135.755 367.817,135.6 368.375,135.288C368.934,134.977 369.399,134.542 369.768,133.983L369.768,130.771L367.964,130.771C366.585,130.771 365.613,131.007 365.05,131.48C364.486,131.953 364.204,132.589 364.204,133.389C364.204,134.165 364.403,134.753 364.8,135.154C365.197,135.555 365.801,135.755 366.612,135.755Z" style="fill:rgb(96,255,217);fill-rule:nonzero;"/>
        <path d="M377.062,137L377.062,124.508L378.763,124.508L378.915,126.242C379.422,125.597 380.056,125.101 380.818,124.756C381.58,124.411 382.321,124.239 383.041,124.239C384.269,124.239 385.163,124.564 385.722,125.214C386.281,125.865 386.561,126.769 386.561,127.927L386.561,137L384.567,137L384.567,129.391C384.567,128.542 384.52,127.853 384.424,127.326C384.328,126.799 384.129,126.415 383.826,126.175C383.523,125.935 383.056,125.814 382.424,125.814C381.937,125.814 381.478,125.921 381.046,126.133C380.614,126.345 380.229,126.611 379.891,126.932C379.553,127.252 379.274,127.575 379.055,127.9L379.055,137L377.062,137Z" style="fill:rgb(96,255,217);fill-rule:nonzero;"/>
        <path d="M288.139,152.58C288.139,154.229 287.914,155.688 287.464,156.957C287.015,158.226 286.344,159.218 285.452,159.934C284.561,160.65 283.45,161.008 282.12,161.008C280.798,161.008 279.689,160.658 278.793,159.958C277.898,159.258 277.225,158.278 276.776,157.019C276.326,155.76 276.101,154.29 276.101,152.607C276.101,150.952 276.326,149.488 276.776,148.213C277.225,146.939 277.898,145.939 278.793,145.214C279.689,144.489 280.798,144.127 282.12,144.127C283.45,144.127 284.561,144.479 285.452,145.185C286.344,145.89 287.015,146.877 287.464,148.145C287.914,149.413 288.139,150.891 288.139,152.58ZM285.981,152.58C285.981,150.402 285.682,148.737 285.083,147.585C284.484,146.432 283.497,145.856 282.12,145.856C280.743,145.856 279.755,146.437 279.157,147.6C278.558,148.762 278.259,150.431 278.259,152.607C278.259,154.779 278.568,156.433 279.187,157.57C279.806,158.708 280.783,159.276 282.12,159.276C283.496,159.276 284.484,158.705 285.082,157.562C285.681,156.419 285.981,154.758 285.981,152.58Z" style="fill:rgb(96,255,217);fill-rule:nonzero;"/>
        <path d="M291.742,160.733L291.742,159.205L293.687,159.205L293.687,149.772L291.742,149.772L291.742,148.24L295.211,148.24L295.579,151.195C296.061,150.166 296.646,149.37 297.334,148.807C298.022,148.243 298.93,147.961 300.058,147.961C300.406,147.961 300.717,147.987 300.991,148.039C301.266,148.091 301.546,148.158 301.833,148.24L301.252,150.02C300.986,149.945 300.746,149.89 300.531,149.855C300.317,149.82 300.075,149.803 299.804,149.803C298.841,149.803 298.017,150.144 297.332,150.825C296.647,151.507 296.097,152.537 295.681,153.915L295.681,159.205L298.228,159.205L298.228,160.733L291.742,160.733ZM299.908,152.466L299.908,149.748L300.109,148.24L301.833,148.24L301.544,152.466L299.908,152.466Z" style="fill:rgb(96,255,217);fill-rule:nonzero;"/>
        <path d="M313.342,142.96L315.335,143.205L315.335,160.733L313.586,160.733L313.396,159.088C312.932,159.75 312.398,160.235 311.793,160.544C311.188,160.853 310.541,161.008 309.852,161.008C308.765,161.008 307.871,160.735 307.168,160.189C306.466,159.642 305.945,158.88 305.605,157.902C305.266,156.923 305.096,155.792 305.096,154.506C305.096,153.251 305.29,152.132 305.679,151.149C306.067,150.166 306.626,149.39 307.356,148.823C308.086,148.255 308.967,147.971 309.997,147.971C310.711,147.971 311.343,148.096 311.893,148.346C312.442,148.595 312.925,148.962 313.342,149.445L313.342,142.96ZM310.512,149.578C309.473,149.578 308.672,149.986 308.108,150.8C307.545,151.614 307.263,152.848 307.263,154.502C307.263,155.581 307.379,156.484 307.609,157.21C307.839,157.936 308.176,158.48 308.622,158.844C309.067,159.208 309.616,159.389 310.271,159.389C310.977,159.389 311.581,159.189 312.084,158.787C312.586,158.386 313.006,157.929 313.342,157.418L313.342,151.178C313.001,150.671 312.589,150.277 312.104,149.998C311.619,149.718 311.088,149.578 310.512,149.578Z" style="fill:rgb(96,255,217);fill-rule:nonzero;"/>
        <path d="M324.866,147.971C326.042,147.971 327.026,148.239 327.82,148.775C328.614,149.31 329.211,150.064 329.612,151.038C330.012,152.011 330.212,153.158 330.212,154.478C330.212,155.751 330.007,156.877 329.596,157.859C329.186,158.84 328.582,159.61 327.786,160.169C326.989,160.728 326.006,161.008 324.839,161.008C323.667,161.008 322.682,160.739 321.884,160.199C321.087,159.66 320.484,158.902 320.077,157.925C319.669,156.947 319.466,155.807 319.466,154.502C319.466,153.214 319.671,152.08 320.081,151.1C320.492,150.119 321.099,149.353 321.903,148.8C322.707,148.248 323.694,147.971 324.866,147.971ZM324.866,149.602C323.788,149.602 322.973,150 322.423,150.797C321.872,151.594 321.596,152.829 321.596,154.502C321.596,156.151 321.867,157.374 322.409,158.173C322.95,158.972 323.76,159.371 324.839,159.371C325.917,159.371 326.727,158.972 327.269,158.173C327.811,157.374 328.081,156.143 328.081,154.478C328.081,152.819 327.812,151.591 327.273,150.796C326.735,150 325.932,149.602 324.866,149.602Z" style="fill:rgb(96,255,217);fill-rule:nonzero;"/>
        <path d="M334.344,160.733L334.344,148.237L336.041,148.237L336.195,149.97C336.701,149.329 337.336,148.837 338.1,148.493C338.863,148.148 339.605,147.976 340.324,147.976C341.551,147.976 342.443,148.301 343,148.949C343.558,149.598 343.837,150.5 343.837,151.655L343.837,160.733L341.843,160.733L341.843,153.126C341.843,152.272 341.796,151.582 341.701,151.056C341.606,150.53 341.408,150.146 341.108,149.905C340.807,149.663 340.34,149.543 339.707,149.543C339.217,149.543 338.756,149.65 338.325,149.863C337.894,150.077 337.51,150.344 337.174,150.664C336.838,150.985 336.559,151.307 336.337,151.631L336.337,160.733L334.344,160.733ZM340.467,145.105C340.048,145.105 339.686,145.01 339.381,144.82C339.077,144.63 338.794,144.438 338.533,144.244C338.272,144.051 337.995,143.954 337.702,143.954C337.433,143.954 337.204,144.047 337.014,144.233C336.824,144.418 336.634,144.693 336.444,145.057L335.174,144.416C335.451,143.855 335.799,143.382 336.219,142.998C336.638,142.615 337.136,142.423 337.714,142.423C338.157,142.423 338.527,142.518 338.823,142.708C339.12,142.898 339.395,143.087 339.648,143.277C339.901,143.467 340.174,143.562 340.467,143.562C340.704,143.562 340.92,143.477 341.114,143.307C341.307,143.137 341.511,142.874 341.725,142.518L342.983,143.159C342.674,143.815 342.306,144.304 341.879,144.624C341.452,144.945 340.981,145.105 340.467,145.105Z" style="fill:rgb(96,255,217);fill-rule:nonzero;"/>
        <path d="M350.151,155.194C350.189,156.157 350.375,156.944 350.709,157.557C351.043,158.169 351.481,158.619 352.024,158.907C352.567,159.196 353.162,159.34 353.808,159.34C354.446,159.34 355.024,159.245 355.54,159.055C356.057,158.865 356.589,158.585 357.136,158.213L358.076,159.532C357.495,159.989 356.829,160.35 356.078,160.613C355.327,160.876 354.563,161.008 353.785,161.008C352.571,161.008 351.537,160.735 350.683,160.189C349.829,159.643 349.178,158.881 348.73,157.904C348.282,156.927 348.058,155.792 348.058,154.498C348.058,153.238 348.284,152.117 348.734,151.134C349.184,150.151 349.817,149.378 350.633,148.815C351.45,148.253 352.412,147.971 353.519,147.971C354.575,147.971 355.482,148.219 356.239,148.715C356.996,149.211 357.578,149.916 357.985,150.829C358.393,151.743 358.596,152.833 358.596,154.1C358.596,154.314 358.592,154.514 358.583,154.702C358.574,154.889 358.564,155.053 358.553,155.194L350.151,155.194ZM353.547,149.609C352.618,149.609 351.843,149.939 351.221,150.598C350.599,151.258 350.245,152.276 350.158,153.653L356.679,153.653C356.653,152.315 356.359,151.306 355.798,150.627C355.236,149.948 354.486,149.609 353.547,149.609Z" style="fill:rgb(96,255,217);fill-rule:nonzero;"/>
        <path d="M365.311,159.031L372.264,159.031L372.009,160.733L362.869,160.733L362.869,159.221L369.8,149.967L363.419,149.967L363.419,148.24L372.2,148.24L372.2,149.777L365.311,159.031Z" style="fill:rgb(96,255,217);fill-rule:nonzero;"/>
    </g>
    <defs>
        <linearGradient id="_Linear1" x1="0" y1="0" x2="1" y2="0" gradientUnits="userSpaceOnUse" gradientTransform="matrix(-93,13.5,-13.5,-93,123.7,160.52)"><stop offset="0" style="stop-color:rgb(93,39,143);stop-opacity:0"/><stop offset="1" style="stop-color:rgb(41,35,118);stop-opacity:1"/></linearGradient>
        <linearGradient id="_Linear2" x1="0" y1="0" x2="1" y2="0" gradientUnits="userSpaceOnUse" gradientTransform="matrix(-15.73,-4.92,4.92,-15.73,71.4,120.14)"><stop offset="0" style="stop-color:rgb(219,249,234);stop-opacity:1"/><stop offset="1" style="stop-color:rgb(192,221,226);stop-opacity:1"/></linearGradient>
        <linearGradient id="_Linear3" x1="0" y1="0" x2="1" y2="0" gradientUnits="userSpaceOnUse" gradientTransform="matrix(-0.007,-0.0018,0.0018,-0.007,45.4572,137.868)"><stop offset="0" style="stop-color:rgb(219,249,234);stop-opacity:1"/><stop offset="1" style="stop-color:rgb(192,221,226);stop-opacity:1"/></linearGradient>
        <linearGradient id="_Linear4" x1="0" y1="0" x2="1" y2="0" gradientUnits="userSpaceOnUse" gradientTransform="matrix(-15.73,-4.92,4.92,-15.73,71.4,120.14)"><stop offset="0" style="stop-color:rgb(219,249,234);stop-opacity:1"/><stop offset="1" style="stop-color:rgb(192,221,226);stop-opacity:1"/></linearGradient>
        <linearGradient id="_Linear5" x1="0" y1="0" x2="1" y2="0" gradientUnits="userSpaceOnUse" gradientTransform="matrix(1853.3,0,0,1853.3,1663.77,2708.06)"><stop offset="0" style="stop-color:rgb(219,249,234);stop-opacity:1"/><stop offset="1" style="stop-color:rgb(192,221,226);stop-opacity:1"/></linearGradient>
        <linearGradient id="_Linear6" x1="0" y1="0" x2="1" y2="0" gradientUnits="userSpaceOnUse" gradientTransform="matrix(6450.21,0,0,6450.21,2282.02,10493.5)"><stop offset="0" style="stop-color:rgb(219,249,234);stop-opacity:1"/><stop offset="1" style="stop-color:rgb(192,221,226);stop-opacity:1"/></linearGradient>
        <linearGradient id="_Linear7" x1="0" y1="0" x2="1" y2="0" gradientUnits="userSpaceOnUse" gradientTransform="matrix(-3291.82,-1064.7,1064.7,-3291.82,8487.2,12674.2)"><stop offset="0" style="stop-color:rgb(219,249,234);stop-opacity:1"/><stop offset="1" style="stop-color:rgb(192,221,226);stop-opacity:1"/></linearGradient>
        <linearGradient id="_Linear8" x1="0" y1="0" x2="1" y2="0" gradientUnits="userSpaceOnUse" gradientTransform="matrix(-23023.5,-31488.7,31488.7,-23023.5,33358.6,50398.3)"><stop offset="0" style="stop-color:rgb(219,249,234);stop-opacity:1"/><stop offset="1" style="stop-color:rgb(192,221,226);stop-opacity:1"/></linearGradient>
        <linearGradient id="_Linear9" x1="0" y1="0" x2="1" y2="0" gradientUnits="userSpaceOnUse" gradientTransform="matrix(17990.9,0,0,17990.9,459.442,13560.6)"><stop offset="0" style="stop-color:rgb(219,249,234);stop-opacity:1"/><stop offset="1" style="stop-color:rgb(192,221,226);stop-opacity:1"/></linearGradient>
        <linearGradient id="_Linear10" x1="0" y1="0" x2="1" y2="0" gradientUnits="userSpaceOnUse" gradientTransform="matrix(104.69,60.44,-60.44,104.69,17.97,55.25)"><stop offset="0" style="stop-color:rgb(93,39,143);stop-opacity:1"/><stop offset="1" style="stop-color:rgb(41,35,118);stop-opacity:1"/></linearGradient>
        <linearGradient id="_Linear11" x1="0" y1="0" x2="1" y2="0" gradientUnits="userSpaceOnUse" gradientTransform="matrix(-0.007,-0.0018,0.0018,-0.007,45.4572,137.868)"><stop offset="0" style="stop-color:rgb(219,249,234);stop-opacity:1"/><stop offset="1" style="stop-color:rgb(192,221,226);stop-opacity:1"/></linearGradient>
        <linearGradient id="_Linear12" x1="0" y1="0" x2="1" y2="0" gradientUnits="userSpaceOnUse" gradientTransform="matrix(61.42,35.46,-35.46,61.42,17.23,56.52)"><stop offset="0" style="stop-color:white;stop-opacity:0.25"/><stop offset="1" style="stop-color:rgb(219,249,234);stop-opacity:0"/></linearGradient>
    </defs>
</svg>
