<svg width="307" height="597" viewBox="0 0 307 597" fill="none" xmlns="http://www.w3.org/2000/svg">
<g id="UI">
<g id="Rocket">
<path id="Vector" d="M93.62 389.74C85.44 395.85 77.02 402.23 72.11 411.18C65.4 423.4 75.4401 433.46 79.5301 444.37C81.9801 450.88 83.21 455.49 81.85 462.42C80.7 468.27 73.23 474.45 77.68 480.69C83.93 489.38 95.17 484.3 101.23 496.46C106.19 506.41 104.25 518.09 110.63 527.56C117.24 537.38 128.49 545.07 132.63 556.43C136.99 568.37 127.34 585.95 140.66 594.32C147.76 598.79 157.7 595 162.79 588.33C173.49 574.3 173.33 548.13 176 531.44C177.24 523.69 182.65 513.45 189.8 516.69C194.29 518.73 200.4 551.1 209.78 534.35C211.62 531.06 211.37 527.05 211.07 523.3C210.64 518.01 208.86 512.05 209.67 506.74C212.61 487.46 217.23 477.09 211.24 456.8C210.6 454.62 210.12 451.86 211.89 450.43C212.82 449.68 214.1 449.57 215.29 449.5C222.75 449.03 231.38 449.52 235.38 441.69C239.69 433.25 229.59 426.85 226.73 419.78C227.3 421.2 247.29 426.93 250.53 428.71C244.41 414.09 229.67 402.8 214.66 398.46" fill="#F07C41"/>
<path id="Vector_2" d="M103.56 459.71C105.71 466.63 108.93 472.89 113.35 477.95C116.82 481.92 121.05 485.35 123.31 490.19C125.25 494.34 125.53 499.14 127.31 503.37C134.19 519.72 147.04 502.27 151.56 494.17C157.16 484.16 162.7 481.21 173.24 481.36C174.42 481.38 175.74 481.33 176.55 480.43C177.31 479.58 177.32 478.27 177.15 477.11C176.22 470.67 169.29 461.7 176.07 456.21C178.75 454.04 182.24 453.39 185.46 452.26C201.61 446.57 201.22 416.9 200.61 402.66C200.38 397.3 198.26 392.19 195.37 387.76C179.25 363.01 137.66 362.92 118.1 383.88C102.22 400.88 95.79 434.66 103.56 459.71Z" fill="#D7384E"/>
<g id="Group">
<path id="Vector_3" d="M304.89 410.33C296.29 417.18 233.78 370.1 172.8 315.83L241.94 260.75C280.96 332.51 312.72 404.09 304.89 410.33Z" fill="#A3FCFA"/>
<path id="Vector_4" d="M1.84999 410.33C10.45 417.18 72.96 370.1 133.94 315.83L64.8 260.75C25.78 332.51 -5.98001 404.09 1.84999 410.33Z" fill="#A3FCFA"/>
<g id="Group_2">
<path id="Vector_5" d="M57.29 270.89C57.29 353.11 99.04 398.21 150.54 398.21C202.04 398.21 243.79 353.11 243.79 270.89C243.79 238.05 233.01 188.35 218.44 140.49H81.92C67.66 188.35 57.29 238.05 57.29 270.89Z" fill="#3D919F"/>
<path id="Vector_6" d="M150.54 0.76001C133.56 0.76001 103.35 68.54 81.91 140.49H218.43C196.52 68.54 166 0.76001 150.54 0.76001Z" fill="#A3FCFA"/>
</g>
<path id="Vector_7" d="M219.68 388.39H81.4C70.53 388.39 61.64 379.5 61.64 368.63C61.64 357.76 70.53 348.87 81.4 348.87H219.68C230.55 348.87 239.44 357.76 239.44 368.63C239.44 379.5 230.55 388.39 219.68 388.39Z" fill="#3D919F"/>
<path id="Vector_8" d="M213.41 399.17H87.67C84.71 399.17 82.28 396.74 82.28 393.78C82.28 390.82 84.71 388.39 87.67 388.39H213.41C216.37 388.39 218.8 390.82 218.8 393.78C218.8 396.74 216.38 399.17 213.41 399.17Z" fill="#A3FCFA"/>
<g id="Group_3">
<path id="Vector_9" d="M150.54 196.18C123.5 196.18 101.59 218.1 101.59 245.13C101.59 246.63 101.68 248.1 101.81 249.56C130.53 237.89 159.04 225.83 186.98 212.52C178.02 202.51 165.03 196.18 150.54 196.18Z" fill="white"/>
<path id="Vector_10" d="M101.81 249.56C104.05 274.52 125 294.08 150.54 294.08C177.58 294.08 199.49 272.16 199.49 245.13C199.49 232.59 194.73 221.18 186.98 212.52C159.04 225.83 130.53 237.89 101.81 249.56Z" fill="#C7EEF5"/>
</g>
</g>
</g>
</g>
</svg>
