<?xml version="1.0" encoding="UTF-8" standalone="no"?>
<!DOCTYPE >
<svg width="100%" height="100%" viewBox="0 0 2560 1440" version="1.1" xmlns="http://www.w3.org/2000/svg" xmlns:xlink="http://www.w3.org/1999/xlink" xml:space="preserve" xmlns:serif="http://www.serif.com/" style="fill-rule:evenodd;clip-rule:evenodd;stroke-linejoin:round;stroke-miterlimit:2;">
    <g transform="matrix(3.87918,0,0,3.87918,-1527.54,-562.198)">
        <g transform="matrix(1,0,0,1.00219,-341,-181.972)">
            <path d="M1399.3,275.86L732.77,275.86C727.247,275.86 722.77,280.337 722.77,285.86L722.77,768.9C722.77,774.423 727.247,778.9 732.77,778.9L1399.3,778.9C1404.82,778.9 1409.3,774.423 1409.3,768.9L1409.3,285.86C1409.3,280.337 1404.82,275.86 1399.3,275.86Z" style="fill:rgb(8,20,33);fill-rule:nonzero;"/>
        </g>
        <g transform="matrix(0.77684,0,0,1.00024,-179.954,-181.555)">
            <path d="M722,317.17L1116,317.17L1116,780L730.8,780C728.471,780 726.238,779.075 724.592,777.428C722.945,775.782 722.02,773.549 722.02,771.22L722.02,317.22L722,317.17Z" style="fill:rgb(8,20,33);fill-rule:nonzero;"/>
        </g>
        <g transform="matrix(1.74693,0,0,1,-880.393,-181.369)">
            <path d="M722,317.17L1116,317.17L1116,776.905C1116,777.726 1115.81,778.513 1115.48,779.093C1115.15,779.674 1114.7,780 1114.23,780L730.8,780C728.471,780 726.238,779.075 724.592,777.428C722.945,775.782 722.02,773.549 722.02,771.22L722.02,317.22L722,317.17Z" style="fill:none;fill-rule:nonzero;"/>
        </g>
        <g id="monitor-balls" transform="matrix(1.09977,0,0,1.09977,-75.7497,-27.4923)">
            <g transform="matrix(1,0,0,1,-341,-181.369)">
                <g opacity="0.7">
                    <path d="M803.759,408.14C803.761,408.748 803.583,409.342 803.247,409.848C802.91,410.354 802.432,410.75 801.871,410.983C801.31,411.217 800.693,411.28 800.096,411.162C799.5,411.045 798.952,410.753 798.522,410.324C798.092,409.895 797.798,409.348 797.679,408.753C797.56,408.157 797.62,407.539 797.852,406.977C798.084,406.416 798.477,405.936 798.982,405.598C799.488,405.26 800.082,405.08 800.689,405.08C801.092,405.079 801.491,405.157 801.863,405.31C802.236,405.463 802.574,405.688 802.859,405.973C803.145,406.257 803.371,406.595 803.525,406.967C803.68,407.339 803.759,407.737 803.759,408.14Z" style="fill:rgb(81,94,151);fill-rule:nonzero;"/>
                </g>
            </g>
            <g transform="matrix(1,0,0,1,-341,-181.369)">
                <g opacity="0.7">
                    <path d="M1009,654.45C1009,655.058 1008.82,655.652 1008.48,656.157C1008.14,656.662 1007.66,657.055 1007.1,657.287C1006.54,657.519 1005.92,657.58 1005.33,657.46C1004.73,657.341 1004.18,657.048 1003.75,656.617C1003.33,656.187 1003.03,655.639 1002.92,655.043C1002.8,654.447 1002.86,653.829 1003.1,653.268C1003.33,652.707 1003.72,652.229 1004.23,651.893C1004.74,651.556 1005.33,651.378 1005.94,651.38C1006.34,651.38 1006.74,651.46 1007.11,651.614C1007.48,651.768 1007.82,651.995 1008.11,652.28C1008.39,652.565 1008.62,652.904 1008.77,653.276C1008.92,653.648 1009,654.047 1009,654.45Z" style="fill:rgb(81,94,151);fill-rule:nonzero;"/>
                </g>
            </g>
            <g transform="matrix(1,0,0,1,-371.577,-229.186)">
                <g opacity="0.7">
                    <path d="M1009,654.45C1009,655.058 1008.82,655.652 1008.48,656.157C1008.14,656.662 1007.66,657.055 1007.1,657.287C1006.54,657.519 1005.92,657.58 1005.33,657.46C1004.73,657.341 1004.18,657.048 1003.75,656.617C1003.33,656.187 1003.03,655.639 1002.92,655.043C1002.8,654.447 1002.86,653.829 1003.1,653.268C1003.33,652.707 1003.72,652.229 1004.23,651.893C1004.74,651.556 1005.33,651.378 1005.94,651.38C1006.34,651.38 1006.74,651.46 1007.11,651.614C1007.48,651.768 1007.82,651.995 1008.11,652.28C1008.39,652.565 1008.62,652.904 1008.77,653.276C1008.92,653.648 1009,654.047 1009,654.45Z" style="fill:rgb(81,94,151);fill-rule:nonzero;"/>
                </g>
            </g>
            <g transform="matrix(1,0,0,1,-341,-181.369)">
                <g opacity="0.7">
                    <path d="M807.559,387.21C807.559,387.574 807.451,387.93 807.249,388.232C807.047,388.535 806.759,388.771 806.423,388.91C806.087,389.049 805.717,389.086 805.36,389.015C805.003,388.944 804.675,388.768 804.418,388.511C804.161,388.254 803.985,387.926 803.914,387.569C803.843,387.212 803.88,386.842 804.019,386.506C804.158,386.17 804.394,385.882 804.697,385.68C804.999,385.478 805.355,385.37 805.719,385.37C806.206,385.373 806.673,385.567 807.017,385.912C807.362,386.256 807.556,386.723 807.559,387.21Z" style="fill:rgb(81,94,151);fill-rule:nonzero;"/>
                </g>
            </g>
            <g transform="matrix(0.305761,0,0,0.305761,256.858,-14.8737)">
                <path d="M1037.24,679C1037.24,680.852 1036.69,682.663 1035.67,684.204C1034.64,685.745 1033.18,686.946 1031.47,687.656C1029.76,688.365 1027.87,688.551 1026.06,688.191C1024.24,687.83 1022.57,686.938 1021.26,685.629C1019.95,684.319 1019.06,682.65 1018.7,680.834C1018.34,679.017 1018.52,677.134 1019.23,675.423C1019.94,673.713 1021.14,672.251 1022.69,671.223C1024.23,670.196 1026.04,669.648 1027.89,669.65C1030.37,669.653 1032.75,670.639 1034.5,672.391C1036.25,674.144 1037.24,676.521 1037.24,679Z" style="fill:rgb(81,94,151);fill-rule:nonzero;"/>
            </g>
            <g transform="matrix(0.305761,0,0,0.305761,256.858,-14.8677)">
                <g opacity="0.6">
                    <path d="M1027.89,697.89C1024.15,697.892 1020.5,696.785 1017.39,694.71C1014.28,692.634 1011.85,689.683 1010.42,686.23C1008.99,682.776 1008.61,678.976 1009.34,675.309C1010.07,671.642 1011.87,668.274 1014.51,665.629C1017.15,662.985 1020.52,661.184 1024.19,660.454C1027.86,659.724 1031.66,660.098 1035.11,661.528C1038.56,662.958 1041.52,665.38 1043.59,668.489C1045.67,671.597 1046.78,675.252 1046.78,678.99C1046.77,683.999 1044.78,688.802 1041.24,692.345C1037.7,695.888 1032.9,697.882 1027.89,697.89ZM1027.89,661.1C1024.35,661.098 1020.89,662.146 1017.94,664.112C1015,666.078 1012.7,668.872 1011.34,672.143C1009.99,675.414 1009.63,679.013 1010.32,682.486C1011.01,685.959 1012.72,689.149 1015.22,691.654C1017.72,694.158 1020.91,695.864 1024.38,696.555C1027.86,697.247 1031.46,696.893 1034.73,695.538C1038,694.184 1040.79,691.89 1042.76,688.946C1044.73,686.002 1045.78,682.541 1045.78,679C1045.78,674.255 1043.89,669.705 1040.54,666.349C1037.18,662.993 1032.63,661.105 1027.89,661.1Z" style="fill:rgb(81,94,151);fill-rule:nonzero;"/>
                </g>
            </g>
            <g transform="matrix(0.283449,0,0,0.283449,210.801,227.984)">
                <path d="M1047.74,389.61C1043.66,389.61 1039.68,388.401 1036.29,386.137C1032.9,383.872 1030.26,380.653 1028.7,376.887C1027.14,373.121 1026.73,368.977 1027.53,364.979C1028.32,360.981 1030.28,357.309 1033.17,354.427C1036.05,351.544 1039.72,349.581 1043.72,348.786C1047.72,347.991 1051.86,348.399 1055.63,349.959C1059.39,351.519 1062.61,354.16 1064.88,357.55C1067.14,360.939 1068.35,364.924 1068.35,369C1068.34,374.465 1066.17,379.704 1062.31,383.568C1058.44,387.432 1053.2,389.605 1047.74,389.61ZM1047.74,349.39C1043.86,349.39 1040.07,350.54 1036.85,352.695C1033.62,354.85 1031.11,357.912 1029.62,361.496C1028.14,365.079 1027.75,369.022 1028.51,372.826C1029.26,376.63 1031.13,380.124 1033.87,382.866C1036.62,385.609 1040.11,387.477 1043.91,388.233C1047.72,388.99 1051.66,388.602 1055.24,387.117C1058.83,385.633 1061.89,383.12 1064.05,379.895C1066.2,376.67 1067.35,372.879 1067.35,369C1067.34,363.801 1065.28,358.816 1061.6,355.14C1057.92,351.463 1052.94,349.395 1047.74,349.39Z" style="fill:rgb(81,94,151);fill-rule:nonzero;"/>
            </g>
            <g transform="matrix(0.398084,0,0,0.398084,156.345,102.47)">
                <path d="M1054.05,380.71C1051.73,381.96 1049.1,382.494 1046.48,382.246C1043.86,381.998 1041.37,380.978 1039.33,379.316C1037.29,377.654 1035.79,375.424 1035.02,372.908C1034.25,370.392 1034.24,367.704 1034.99,365.184C1035.75,362.663 1037.24,360.424 1039.27,358.748C1041.3,357.073 1043.78,356.038 1046.4,355.773C1049.01,355.508 1051.65,356.026 1053.97,357.261C1056.3,358.496 1058.2,360.392 1059.45,362.71C1061.12,365.814 1061.49,369.452 1060.47,372.827C1059.46,376.202 1057.15,379.037 1054.05,380.71Z" style="fill:rgb(81,94,151);fill-rule:nonzero;"/>
            </g>
            <g transform="matrix(0.398084,0,0,0.398084,156.343,102.472)">
                <path d="M1047.74,389.61C1043.66,389.61 1039.68,388.401 1036.29,386.137C1032.9,383.872 1030.26,380.653 1028.7,376.887C1027.14,373.121 1026.73,368.977 1027.53,364.979C1028.32,360.981 1030.28,357.309 1033.17,354.427C1036.05,351.544 1039.72,349.581 1043.72,348.786C1047.72,347.991 1051.86,348.399 1055.63,349.959C1059.39,351.519 1062.61,354.16 1064.88,357.55C1067.14,360.939 1068.35,364.924 1068.35,369C1068.34,374.465 1066.17,379.704 1062.31,383.568C1058.44,387.432 1053.2,389.605 1047.74,389.61ZM1047.74,349.39C1043.86,349.39 1040.07,350.54 1036.85,352.695C1033.62,354.85 1031.11,357.912 1029.62,361.496C1028.14,365.079 1027.75,369.022 1028.51,372.826C1029.26,376.63 1031.13,380.124 1033.87,382.866C1036.62,385.609 1040.11,387.477 1043.91,388.233C1047.72,388.99 1051.66,388.602 1055.24,387.117C1058.83,385.633 1061.89,383.12 1064.05,379.895C1066.2,376.67 1067.35,372.879 1067.35,369C1067.34,363.801 1065.28,358.816 1061.6,355.14C1057.92,351.463 1052.94,349.395 1047.74,349.39Z" style="fill:rgb(81,94,151);fill-rule:nonzero;"/>
            </g>
            <g transform="matrix(0.398084,0,0,0.398084,478.645,116.534)">
                <path d="M1054.05,380.71C1051.73,381.96 1049.1,382.494 1046.48,382.246C1043.86,381.998 1041.37,380.978 1039.33,379.316C1037.29,377.654 1035.79,375.424 1035.02,372.908C1034.25,370.392 1034.24,367.704 1034.99,365.184C1035.75,362.663 1037.24,360.424 1039.27,358.748C1041.3,357.073 1043.78,356.038 1046.4,355.773C1049.01,355.508 1051.65,356.026 1053.97,357.261C1056.3,358.496 1058.2,360.392 1059.45,362.71C1061.12,365.814 1061.49,369.452 1060.47,372.827C1059.46,376.202 1057.15,379.037 1054.05,380.71Z" style="fill:rgb(81,94,151);fill-rule:nonzero;"/>
            </g>
            <g transform="matrix(0.398084,0,0,0.398084,478.643,116.536)">
                <path d="M1047.74,389.61C1043.66,389.61 1039.68,388.401 1036.29,386.137C1032.9,383.872 1030.26,380.653 1028.7,376.887C1027.14,373.121 1026.73,368.977 1027.53,364.979C1028.32,360.981 1030.28,357.309 1033.17,354.427C1036.05,351.544 1039.72,349.581 1043.72,348.786C1047.72,347.991 1051.86,348.399 1055.63,349.959C1059.39,351.519 1062.61,354.16 1064.88,357.55C1067.14,360.939 1068.35,364.924 1068.35,369C1068.34,374.465 1066.17,379.704 1062.31,383.568C1058.44,387.432 1053.2,389.605 1047.74,389.61ZM1047.74,349.39C1043.86,349.39 1040.07,350.54 1036.85,352.695C1033.62,354.85 1031.11,357.912 1029.62,361.496C1028.14,365.079 1027.75,369.022 1028.51,372.826C1029.26,376.63 1031.13,380.124 1033.87,382.866C1036.62,385.609 1040.11,387.477 1043.91,388.233C1047.72,388.99 1051.66,388.602 1055.24,387.117C1058.83,385.633 1061.89,383.12 1064.05,379.895C1066.2,376.67 1067.35,372.879 1067.35,369C1067.34,363.801 1065.28,358.816 1061.6,355.14C1057.92,351.463 1052.94,349.395 1047.74,349.39Z" style="fill:rgb(81,94,151);fill-rule:nonzero;"/>
            </g>
            <g transform="matrix(0.398084,0,0,0.398084,101.868,251.92)">
                <path d="M1054.05,380.71C1051.73,381.96 1049.1,382.494 1046.48,382.246C1043.86,381.998 1041.37,380.978 1039.33,379.316C1037.29,377.654 1035.79,375.424 1035.02,372.908C1034.25,370.392 1034.24,367.704 1034.99,365.184C1035.75,362.663 1037.24,360.424 1039.27,358.748C1041.3,357.073 1043.78,356.038 1046.4,355.773C1049.01,355.508 1051.65,356.026 1053.97,357.261C1056.3,358.496 1058.2,360.392 1059.45,362.71C1061.12,365.814 1061.49,369.452 1060.47,372.827C1059.46,376.202 1057.15,379.037 1054.05,380.71Z" style="fill:rgb(81,94,151);fill-rule:nonzero;"/>
            </g>
            <g transform="matrix(1,0,0,1,25.2835,-182.189)">
                <g opacity="0.7">
                    <path d="M754.899,661.31C754.899,661.759 754.766,662.198 754.517,662.571C754.267,662.945 753.913,663.235 753.498,663.407C753.083,663.579 752.627,663.624 752.187,663.536C751.746,663.449 751.342,663.233 751.024,662.915C750.707,662.598 750.491,662.193 750.403,661.753C750.315,661.313 750.36,660.856 750.532,660.441C750.704,660.027 750.995,659.672 751.368,659.423C751.742,659.173 752.18,659.04 752.629,659.04C753.231,659.04 753.809,659.279 754.234,659.705C754.66,660.131 754.899,660.708 754.899,661.31Z" style="fill:rgb(81,94,151);fill-rule:nonzero;"/>
                </g>
            </g>
            <g transform="matrix(0.305761,0,0,0.305761,623.142,-15.6941)">
                <path d="M1037.24,679C1037.24,680.852 1036.69,682.663 1035.67,684.204C1034.64,685.745 1033.18,686.946 1031.47,687.656C1029.76,688.365 1027.87,688.551 1026.06,688.191C1024.24,687.83 1022.57,686.938 1021.26,685.629C1019.95,684.319 1019.06,682.65 1018.7,680.834C1018.34,679.017 1018.52,677.134 1019.23,675.423C1019.94,673.713 1021.14,672.251 1022.69,671.223C1024.23,670.196 1026.04,669.648 1027.89,669.65C1030.37,669.653 1032.75,670.639 1034.5,672.391C1036.25,674.144 1037.24,676.521 1037.24,679Z" style="fill:rgb(81,94,151);fill-rule:nonzero;"/>
            </g>
            <g transform="matrix(0.283449,0,0,0.283449,480.635,102.833)">
                <path d="M1054.05,380.71C1051.73,381.96 1049.1,382.494 1046.48,382.246C1043.86,381.998 1041.37,380.978 1039.33,379.316C1037.29,377.654 1035.79,375.424 1035.02,372.908C1034.25,370.392 1034.24,367.704 1034.99,365.184C1035.75,362.663 1037.24,360.424 1039.27,358.748C1041.3,357.073 1043.78,356.038 1046.4,355.773C1049.01,355.508 1051.65,356.026 1053.97,357.261C1056.3,358.496 1058.2,360.392 1059.45,362.71C1061.12,365.814 1061.49,369.452 1060.47,372.827C1059.46,376.202 1057.15,379.037 1054.05,380.71Z" style="fill:rgb(81,94,151);fill-rule:nonzero;"/>
            </g>
            <g transform="matrix(0.283449,0,0,0.283449,533.119,119.119)">
                <path d="M1047.74,389.61C1043.66,389.61 1039.68,388.401 1036.29,386.137C1032.9,383.872 1030.26,380.653 1028.7,376.887C1027.14,373.121 1026.73,368.977 1027.53,364.979C1028.32,360.981 1030.28,357.309 1033.17,354.427C1036.05,351.544 1039.72,349.581 1043.72,348.786C1047.72,347.991 1051.86,348.399 1055.63,349.959C1059.39,351.519 1062.61,354.16 1064.88,357.55C1067.14,360.939 1068.35,364.924 1068.35,369C1068.34,374.465 1066.17,379.704 1062.31,383.568C1058.44,387.432 1053.2,389.605 1047.74,389.61ZM1047.74,349.39C1043.86,349.39 1040.07,350.54 1036.85,352.695C1033.62,354.85 1031.11,357.912 1029.62,361.496C1028.14,365.079 1027.75,369.022 1028.51,372.826C1029.26,376.63 1031.13,380.124 1033.87,382.866C1036.62,385.609 1040.11,387.477 1043.91,388.233C1047.72,388.99 1051.66,388.602 1055.24,387.117C1058.83,385.633 1061.89,383.12 1064.05,379.895C1066.2,376.67 1067.35,372.879 1067.35,369C1067.34,363.801 1065.28,358.816 1061.6,355.14C1057.92,351.463 1052.94,349.395 1047.74,349.39Z" style="fill:rgb(81,94,151);fill-rule:nonzero;"/>
            </g>
            <g transform="matrix(0.398084,0,0,0.398084,602.343,26.1252)">
                <path d="M1054.05,380.71C1051.73,381.96 1049.1,382.494 1046.48,382.246C1043.86,381.998 1041.37,380.978 1039.33,379.316C1037.29,377.654 1035.79,375.424 1035.02,372.908C1034.25,370.392 1034.24,367.704 1034.99,365.184C1035.75,362.663 1037.24,360.424 1039.27,358.748C1041.3,357.073 1043.78,356.038 1046.4,355.773C1049.01,355.508 1051.65,356.026 1053.97,357.261C1056.3,358.496 1058.2,360.392 1059.45,362.71C1061.12,365.814 1061.49,369.452 1060.47,372.827C1059.46,376.202 1057.15,379.037 1054.05,380.71Z" style="fill:rgb(81,94,151);fill-rule:nonzero;"/>
            </g>
            <g transform="matrix(0.398084,0,0,0.398084,602.341,26.1273)">
                <path d="M1047.74,389.61C1043.66,389.61 1039.68,388.401 1036.29,386.137C1032.9,383.872 1030.26,380.653 1028.7,376.887C1027.14,373.121 1026.73,368.977 1027.53,364.979C1028.32,360.981 1030.28,357.309 1033.17,354.427C1036.05,351.544 1039.72,349.581 1043.72,348.786C1047.72,347.991 1051.86,348.399 1055.63,349.959C1059.39,351.519 1062.61,354.16 1064.88,357.55C1067.14,360.939 1068.35,364.924 1068.35,369C1068.34,374.465 1066.17,379.704 1062.31,383.568C1058.44,387.432 1053.2,389.605 1047.74,389.61ZM1047.74,349.39C1043.86,349.39 1040.07,350.54 1036.85,352.695C1033.62,354.85 1031.11,357.912 1029.62,361.496C1028.14,365.079 1027.75,369.022 1028.51,372.826C1029.26,376.63 1031.13,380.124 1033.87,382.866C1036.62,385.609 1040.11,387.477 1043.91,388.233C1047.72,388.99 1051.66,388.602 1055.24,387.117C1058.83,385.633 1061.89,383.12 1064.05,379.895C1066.2,376.67 1067.35,372.879 1067.35,369C1067.34,363.801 1065.28,358.816 1061.6,355.14C1057.92,351.463 1052.94,349.395 1047.74,349.39Z" style="fill:rgb(81,94,151);fill-rule:nonzero;"/>
            </g>
            <g transform="matrix(0.305761,0,0,0.305761,577.262,143.859)">
                <path d="M1037.24,679C1037.24,680.852 1036.69,682.663 1035.67,684.204C1034.64,685.745 1033.18,686.946 1031.47,687.656C1029.76,688.365 1027.87,688.551 1026.06,688.191C1024.24,687.83 1022.57,686.938 1021.26,685.629C1019.95,684.319 1019.06,682.65 1018.7,680.834C1018.34,679.017 1018.52,677.134 1019.23,675.423C1019.94,673.713 1021.14,672.251 1022.69,671.223C1024.23,670.196 1026.04,669.648 1027.89,669.65C1030.37,669.653 1032.75,670.639 1034.5,672.391C1036.25,674.144 1037.24,676.521 1037.24,679Z" style="fill:rgb(81,94,151);fill-rule:nonzero;"/>
            </g>
            <g transform="matrix(0.398084,0,0,0.398084,556.464,185.678)">
                <path d="M1054.05,380.71C1051.73,381.96 1049.1,382.494 1046.48,382.246C1043.86,381.998 1041.37,380.978 1039.33,379.316C1037.29,377.654 1035.79,375.424 1035.02,372.908C1034.25,370.392 1034.24,367.704 1034.99,365.184C1035.75,362.663 1037.24,360.424 1039.27,358.748C1041.3,357.073 1043.78,356.038 1046.4,355.773C1049.01,355.508 1051.65,356.026 1053.97,357.261C1056.3,358.496 1058.2,360.392 1059.45,362.71C1061.12,365.814 1061.49,369.452 1060.47,372.827C1059.46,376.202 1057.15,379.037 1054.05,380.71Z" style="fill:rgb(81,94,151);fill-rule:nonzero;"/>
            </g>
            <g transform="matrix(0.398084,0,0,0.398084,556.462,185.68)">
                <path d="M1047.74,389.61C1043.66,389.61 1039.68,388.401 1036.29,386.137C1032.9,383.872 1030.26,380.653 1028.7,376.887C1027.14,373.121 1026.73,368.977 1027.53,364.979C1028.32,360.981 1030.28,357.309 1033.17,354.427C1036.05,351.544 1039.72,349.581 1043.72,348.786C1047.72,347.991 1051.86,348.399 1055.63,349.959C1059.39,351.519 1062.61,354.16 1064.88,357.55C1067.14,360.939 1068.35,364.924 1068.35,369C1068.34,374.465 1066.17,379.704 1062.31,383.568C1058.44,387.432 1053.2,389.605 1047.74,389.61ZM1047.74,349.39C1043.86,349.39 1040.07,350.54 1036.85,352.695C1033.62,354.85 1031.11,357.912 1029.62,361.496C1028.14,365.079 1027.75,369.022 1028.51,372.826C1029.26,376.63 1031.13,380.124 1033.87,382.866C1036.62,385.609 1040.11,387.477 1043.91,388.233C1047.72,388.99 1051.66,388.602 1055.24,387.117C1058.83,385.633 1061.89,383.12 1064.05,379.895C1066.2,376.67 1067.35,372.879 1067.35,369C1067.34,363.801 1065.28,358.816 1061.6,355.14C1057.92,351.463 1052.94,349.395 1047.74,349.39Z" style="fill:rgb(81,94,151);fill-rule:nonzero;"/>
            </g>
            <g transform="matrix(0.149232,0.26687,-0.26687,0.149232,983.057,37.7764)">
                <path d="M1037.24,679C1037.24,680.852 1036.69,682.663 1035.67,684.204C1034.64,685.745 1033.18,686.946 1031.47,687.656C1029.76,688.365 1027.87,688.551 1026.06,688.191C1024.24,687.83 1022.57,686.938 1021.26,685.629C1019.95,684.319 1019.06,682.65 1018.7,680.834C1018.34,679.017 1018.52,677.134 1019.23,675.423C1019.94,673.713 1021.14,672.251 1022.69,671.223C1024.23,670.196 1026.04,669.648 1027.89,669.65C1030.37,669.653 1032.75,670.639 1034.5,672.391C1036.25,674.144 1037.24,676.521 1037.24,679Z" style="fill:rgb(81,94,151);fill-rule:nonzero;"/>
            </g>
            <g transform="matrix(0.194292,0.34745,-0.34745,0.194292,936.406,40.0341)">
                <path d="M1054.05,380.71C1051.73,381.96 1049.1,382.494 1046.48,382.246C1043.86,381.998 1041.37,380.978 1039.33,379.316C1037.29,377.654 1035.79,375.424 1035.02,372.908C1034.25,370.392 1034.24,367.704 1034.99,365.184C1035.75,362.663 1037.24,360.424 1039.27,358.748C1041.3,357.073 1043.78,356.038 1046.4,355.773C1049.01,355.508 1051.65,356.026 1053.97,357.261C1056.3,358.496 1058.2,360.392 1059.45,362.71C1061.12,365.814 1061.49,369.452 1060.47,372.827C1059.46,376.202 1057.15,379.037 1054.05,380.71Z" style="fill:rgb(81,94,151);fill-rule:nonzero;"/>
            </g>
            <g transform="matrix(0.194292,0.34745,-0.34745,0.194292,936.403,40.0333)">
                <path d="M1047.74,389.61C1043.66,389.61 1039.68,388.401 1036.29,386.137C1032.9,383.872 1030.26,380.653 1028.7,376.887C1027.14,373.121 1026.73,368.977 1027.53,364.979C1028.32,360.981 1030.28,357.309 1033.17,354.427C1036.05,351.544 1039.72,349.581 1043.72,348.786C1047.72,347.991 1051.86,348.399 1055.63,349.959C1059.39,351.519 1062.61,354.16 1064.88,357.55C1067.14,360.939 1068.35,364.924 1068.35,369C1068.34,374.465 1066.17,379.704 1062.31,383.568C1058.44,387.432 1053.2,389.605 1047.74,389.61ZM1047.74,349.39C1043.86,349.39 1040.07,350.54 1036.85,352.695C1033.62,354.85 1031.11,357.912 1029.62,361.496C1028.14,365.079 1027.75,369.022 1028.51,372.826C1029.26,376.63 1031.13,380.124 1033.87,382.866C1036.62,385.609 1040.11,387.477 1043.91,388.233C1047.72,388.99 1051.66,388.602 1055.24,387.117C1058.83,385.633 1061.89,383.12 1064.05,379.895C1066.2,376.67 1067.35,372.879 1067.35,369C1067.34,363.801 1065.28,358.816 1061.6,355.14C1057.92,351.463 1052.94,349.395 1047.74,349.39Z" style="fill:rgb(81,94,151);fill-rule:nonzero;"/>
            </g>
            <g transform="matrix(0.398084,0,0,0.398084,362.034,277.549)">
                <path d="M1054.05,380.71C1051.73,381.96 1049.1,382.494 1046.48,382.246C1043.86,381.998 1041.37,380.978 1039.33,379.316C1037.29,377.654 1035.79,375.424 1035.02,372.908C1034.25,370.392 1034.24,367.704 1034.99,365.184C1035.75,362.663 1037.24,360.424 1039.27,358.748C1041.3,357.073 1043.78,356.038 1046.4,355.773C1049.01,355.508 1051.65,356.026 1053.97,357.261C1056.3,358.496 1058.2,360.392 1059.45,362.71C1061.12,365.814 1061.49,369.452 1060.47,372.827C1059.46,376.202 1057.15,379.037 1054.05,380.71Z" style="fill:rgb(81,94,151);fill-rule:nonzero;"/>
            </g>
            <g transform="matrix(0.398084,0,0,0.398084,465.144,29.8075)">
                <path d="M1047.74,389.61C1043.66,389.61 1039.68,388.401 1036.29,386.137C1032.9,383.872 1030.26,380.653 1028.7,376.887C1027.14,373.121 1026.73,368.977 1027.53,364.979C1028.32,360.981 1030.28,357.309 1033.17,354.427C1036.05,351.544 1039.72,349.581 1043.72,348.786C1047.72,347.991 1051.86,348.399 1055.63,349.959C1059.39,351.519 1062.61,354.16 1064.88,357.55C1067.14,360.939 1068.35,364.924 1068.35,369C1068.34,374.465 1066.17,379.704 1062.31,383.568C1058.44,387.432 1053.2,389.605 1047.74,389.61ZM1047.74,349.39C1043.86,349.39 1040.07,350.54 1036.85,352.695C1033.62,354.85 1031.11,357.912 1029.62,361.496C1028.14,365.079 1027.75,369.022 1028.51,372.826C1029.26,376.63 1031.13,380.124 1033.87,382.866C1036.62,385.609 1040.11,387.477 1043.91,388.233C1047.72,388.99 1051.66,388.602 1055.24,387.117C1058.83,385.633 1061.89,383.12 1064.05,379.895C1066.2,376.67 1067.35,372.879 1067.35,369C1067.34,363.801 1065.28,358.816 1061.6,355.14C1057.92,351.463 1052.94,349.395 1047.74,349.39Z" style="fill:rgb(81,94,151);fill-rule:nonzero;"/>
            </g>
        </g>
    </g>
</svg>
