<svg width="261" height="138" viewBox="0 0 261 138" fill="none" xmlns="http://www.w3.org/2000/svg">
<g id="UI" filter="url(#filter0_d_6_7)">
<g id="Rocket">
<path id="fire" d="M91.7003 39.8184C89.112 36.3533 86.4094 32.7865 82.6181 30.7066C77.4416 27.8642 73.1801 32.1172 68.5586 33.8498C65.8009 34.8876 63.848 35.4086 60.9124 34.8325C58.4343 34.3454 55.8164 31.181 53.1731 33.0661C49.4919 35.7136 51.6438 40.475 46.4928 43.0421C42.2779 45.1432 37.3301 44.3214 33.3186 47.024C29.1587 49.8241 25.9012 54.5896 21.089 56.3434C16.0311 58.1903 8.58405 54.1025 5.03844 59.745C3.14491 62.7526 4.75039 66.9632 7.57586 69.1194C13.5191 73.652 24.6049 73.5843 31.675 74.7153C34.9579 75.2406 39.2957 77.5323 37.9232 80.5611C37.059 82.4631 23.3468 85.0513 30.4423 89.0248C31.8359 89.8042 33.5346 89.6983 35.1231 89.5712C37.364 89.3891 39.8887 88.6351 42.1381 88.9782C50.3053 90.2236 54.6981 92.1807 63.2931 89.6432C64.2166 89.3721 65.3857 89.1688 65.9915 89.9186C66.3092 90.3126 66.3558 90.8548 66.3854 91.3589C66.5845 94.519 66.377 98.1747 69.6938 99.8692C73.2691 101.695 75.9802 97.4165 78.9751 96.2049C78.3735 96.4464 75.9463 104.914 75.1922 106.287C81.3854 103.694 86.168 97.4503 88.0064 91.092" fill="#F07C41"/>
<path id="inner-fire" d="M62.0604 44.0291C59.129 44.9399 56.4772 46.3039 54.3338 48.1762C52.652 49.6461 51.1991 51.438 49.1488 52.3954C47.3908 53.2172 45.3575 53.3358 43.5656 54.0898C36.6396 57.0042 44.0316 62.4476 47.4628 64.3623C51.7032 66.7345 52.9528 69.0813 52.8893 73.5461C52.8808 74.046 52.902 74.6052 53.2832 74.9483C53.6433 75.2702 54.1982 75.2745 54.6896 75.2025C57.4176 74.8085 61.2174 71.8729 63.543 74.745C64.4622 75.8802 64.7376 77.3586 65.2163 78.7226C67.6266 85.5639 80.1951 85.3987 86.2273 85.1403C88.4978 85.0429 90.6624 84.1448 92.539 82.9206C103.023 76.092 103.061 58.4741 94.1826 50.1884C86.9813 43.4614 72.6718 40.7377 62.0604 44.0291Z" fill="#D7384E"/>
<g id="rocket-body">
<path id="Vector" d="M82.9782 129.314C80.0765 125.671 100.02 99.1914 123.009 73.3597L146.342 102.648C115.943 119.177 85.6215 132.631 82.9782 129.314Z" fill="#A3FCFA"/>
<path id="Vector_2" d="M82.9782 0.94386C80.0765 4.58689 100.02 31.0667 123.009 56.8983L146.342 27.61C115.943 11.0808 85.6215 -2.37299 82.9782 0.94386Z" fill="#A3FCFA"/>
<g id="Group">
<path id="Vector_3" d="M142.046 24.4287C107.217 24.4287 88.1123 42.1144 88.1123 63.9302C88.1123 85.746 107.217 103.432 142.046 103.432C155.957 103.432 177.011 98.8652 197.285 92.6932V34.8622C177.011 28.8215 155.957 24.4287 142.046 24.4287Z" fill="#3D919F"/>
<path id="Vector_4" d="M256.476 63.9302C256.476 56.7373 227.763 43.9401 197.285 34.8579V92.689C227.763 83.4077 256.476 70.4792 256.476 63.9302Z" fill="#A3FCFA"/>
</g>
<path id="Vector_5" d="M92.2722 93.2185L92.2722 34.6419C92.2722 30.0373 96.038 26.2714 100.643 26.2714C105.247 26.2714 109.013 30.0373 109.013 34.6419L109.013 93.2185C109.013 97.8231 105.247 101.589 100.643 101.589C96.038 101.589 92.2722 97.8231 92.2722 93.2185Z" fill="#3D919F"/>
<path id="Vector_6" d="M87.7056 90.5625L87.7056 37.2979C87.7056 36.0441 88.735 35.0147 89.9889 35.0147C91.2428 35.0147 92.2721 36.0441 92.2721 37.2979L92.2721 90.5625C92.2721 91.8164 91.2428 92.8457 89.9889 92.8457C88.735 92.8457 87.7056 91.8206 87.7056 90.5625Z" fill="#A3FCFA"/>
<g id="Group_2">
<path id="Vector_7" d="M173.694 63.9302C173.694 52.4758 164.408 43.1946 152.958 43.1946C152.323 43.1946 151.7 43.2327 151.082 43.2878C156.025 55.4538 161.134 67.5309 166.772 79.3665C171.013 75.571 173.694 70.0683 173.694 63.9302Z" fill="white"/>
<path id="Vector_8" d="M151.082 43.2878C140.508 44.2366 132.223 53.1112 132.223 63.9302C132.223 75.3846 141.508 84.6658 152.958 84.6658C158.27 84.6658 163.104 82.6494 166.772 79.3665C161.134 67.5309 156.025 55.4538 151.082 43.2878Z" fill="#C7EEF5"/>
</g>
</g>
</g>
</g>
<defs>
<filter id="filter0_d_6_7" x="0.217461" y="0.437744" width="260.258" height="137.383" filterUnits="userSpaceOnUse" color-interpolation-filters="sRGB">
<feFlood flood-opacity="0" result="BackgroundImageFix"/>
<feColorMatrix in="SourceAlpha" type="matrix" values="0 0 0 0 0 0 0 0 0 0 0 0 0 0 0 0 0 0 127 0" result="hardAlpha"/>
<feOffset dy="4"/>
<feGaussianBlur stdDeviation="2"/>
<feComposite in2="hardAlpha" operator="out"/>
<feColorMatrix type="matrix" values="0 0 0 0 0 0 0 0 0 0 0 0 0 0 0 0 0 0 0.25 0"/>
<feBlend mode="normal" in2="BackgroundImageFix" result="effect1_dropShadow_6_7"/>
<feBlend mode="normal" in="SourceGraphic" in2="effect1_dropShadow_6_7" result="shape"/>
</filter>
</defs>
</svg>
