<?xml version="1.0" encoding="UTF-8" standalone="no"?>
<!DOCTYPE svg PUBLIC "-//W3C//DTD SVG 1.1//EN" "http://www.w3.org/Graphics/SVG/1.1/DTD/svg11.dtd">
<svg width="100%" height="100%" viewBox="0 0 261 138" version="1.1" xmlns="http://www.w3.org/2000/svg" xmlns:xlink="http://www.w3.org/1999/xlink" xml:space="preserve" xmlns:serif="http://www.serif.com/" style="fill-rule:evenodd;clip-rule:evenodd;stroke-linejoin:round;stroke-miterlimit:2;">
    <g id="UI">
        <g id="Rocket">
            <path id="fire" d="M91.7,39.818C89.112,36.353 86.409,32.786 82.618,30.707C77.442,27.864 73.18,32.117 68.559,33.85C65.801,34.888 63.848,35.409 60.912,34.833C58.434,34.345 55.816,31.181 53.173,33.066C49.492,35.714 51.644,40.475 46.493,43.042C42.278,45.143 37.33,44.321 33.319,47.024C29.159,49.824 25.901,54.59 21.089,56.343C16.031,58.19 8.584,54.103 5.038,59.745C3.145,62.753 4.75,66.963 7.576,69.119C13.519,73.652 24.605,73.584 31.675,74.715C34.958,75.241 39.296,77.532 37.923,80.561C37.059,82.463 23.347,85.051 30.442,89.025C31.836,89.804 33.535,89.698 35.123,89.571C37.364,89.389 39.889,88.635 42.138,88.978C50.305,90.224 54.698,92.181 63.293,89.643C64.217,89.372 65.386,89.169 65.992,89.919C66.309,90.313 66.356,90.855 66.385,91.359C66.585,94.519 66.377,98.175 69.694,99.869C73.269,101.695 75.98,97.417 78.975,96.205C78.374,96.446 75.946,104.914 75.192,106.287C81.385,103.694 86.168,97.45 88.006,91.092" style="fill:rgb(240,124,65);fill-rule:nonzero;"/>
            <path id="inner-fire" d="M62.06,44.029C59.129,44.94 56.477,46.304 54.334,48.176C52.652,49.646 51.199,51.438 49.149,52.395C47.391,53.217 45.358,53.336 43.566,54.09C36.64,57.004 44.032,62.448 47.463,64.362C51.703,66.735 52.953,69.081 52.889,73.546C52.881,74.046 52.902,74.605 53.283,74.948C53.643,75.27 54.198,75.275 54.69,75.203C57.418,74.809 61.217,71.873 63.543,74.745C64.462,75.88 64.738,77.359 65.216,78.723C67.627,85.564 80.195,85.399 86.227,85.14C88.498,85.043 90.662,84.145 92.539,82.921C103.023,76.092 103.061,58.474 94.183,50.188C86.981,43.461 72.672,40.738 62.06,44.029Z" style="fill:rgb(215,56,78);fill-rule:nonzero;"/>
            <g id="rocket-body">
                <path id="Vector" d="M82.978,129.314C80.077,125.671 100.02,99.191 123.009,73.36L146.342,102.648C115.943,119.177 85.622,132.631 82.978,129.314Z" style="fill:rgb(163,252,250);fill-rule:nonzero;"/>
                <path id="Vector_2" d="M82.978,0.944C80.077,4.587 100.02,31.067 123.009,56.898L146.342,27.61C115.943,11.081 85.622,-2.373 82.978,0.944Z" style="fill:rgb(163,252,250);fill-rule:nonzero;"/>
                <g id="Group">
                    <path id="Vector_3" d="M142.046,24.429C107.217,24.429 88.112,42.114 88.112,63.93C88.112,85.746 107.217,103.432 142.046,103.432C155.957,103.432 177.011,98.865 197.285,92.693L197.285,34.862C177.011,28.822 155.957,24.429 142.046,24.429Z" style="fill:rgb(61,145,159);fill-rule:nonzero;"/>
                    <path id="Vector_4" d="M256.476,63.93C256.476,56.737 227.763,43.94 197.285,34.858L197.285,92.689C227.763,83.408 256.476,70.479 256.476,63.93Z" style="fill:rgb(163,252,250);fill-rule:nonzero;"/>
                </g>
                <path id="Vector_5" d="M92.272,93.219L92.272,34.642C92.272,30.037 96.038,26.271 100.643,26.271C105.247,26.271 109.013,30.037 109.013,34.642L109.013,93.219C109.013,97.823 105.247,101.589 100.643,101.589C96.038,101.589 92.272,97.823 92.272,93.219Z" style="fill:rgb(61,145,159);fill-rule:nonzero;"/>
                <path id="Vector_6" d="M87.706,90.563L87.706,37.298C87.706,36.044 88.735,35.015 89.989,35.015C91.243,35.015 92.272,36.044 92.272,37.298L92.272,90.563C92.272,91.816 91.243,92.846 89.989,92.846C88.735,92.846 87.706,91.821 87.706,90.563Z" style="fill:rgb(163,252,250);fill-rule:nonzero;"/>
                <g id="Group_2">
                    <path id="Vector_7" d="M173.694,63.93C173.694,52.476 164.408,43.195 152.958,43.195C152.323,43.195 151.7,43.233 151.082,43.288C156.025,55.454 161.134,67.531 166.772,79.367C171.013,75.571 173.694,70.068 173.694,63.93Z" style="fill:white;fill-rule:nonzero;"/>
                    <path id="Vector_8" d="M151.082,43.288C140.508,44.237 132.223,53.111 132.223,63.93C132.223,75.385 141.508,84.666 152.958,84.666C158.27,84.666 163.104,82.649 166.772,79.367C161.134,67.531 156.025,55.454 151.082,43.288Z" style="fill:rgb(199,238,245);fill-rule:nonzero;"/>
                </g>
            </g>
        </g>
    </g>
</svg>
